<svg fill="none" xmlns="http://www.w3.org/2000/svg" viewBox="0 0 24 24">
  <g clip-path="url(#HxB-sQNKJ74ga)">
    <path d="M12 6c-3.951 0-7.346 2.374-8.848 5.773a.9.9 0 000 .727c1.502 3.399 4.897 5.773 8.848 5.773 3.951 0 7.346-2.374 8.848-5.773a.9.9 0 000-.727C19.346 8.374 15.951 6 12 6zm0 10.227a4.092 4.092 0 01-4.09-4.09A4.092 4.092 0 0112 8.044a4.092 4.092 0 014.09 4.091A4.092 4.092 0 0112 16.227zm0-6.545a2.451 2.451 0 00-2.455 2.454A2.451 2.451 0 0012 14.591a2.451 2.451 0 002.454-2.455A2.451 2.451 0 0012 9.682z" fill="#595959"/>
  </g>
  <defs>
    <clipPath id="HxB-sQNKJ74ga">
      <path fill="#fff" d="M0 0h24v24H0z"/>
    </clipPath>
  </defs>
</svg>
